<?xml version="1.0" encoding="UTF-8" standalone="no"?>
<svg
   xmlns:dc="http://purl.org/dc/elements/1.1/"
   xmlns:cc="http://creativecommons.org/ns#"
   xmlns:rdf="http://www.w3.org/1999/02/22-rdf-syntax-ns#"
   xmlns:svg="http://www.w3.org/2000/svg"
   xmlns="http://www.w3.org/2000/svg"
   xmlns:sodipodi="http://sodipodi.sourceforge.net/DTD/sodipodi-0.dtd"
   xmlns:inkscape="http://www.inkscape.org/namespaces/inkscape"
   inkscape:version="1.0 (4035a4fb49, 2020-05-01)"
   sodipodi:docname="menu1trait gauche.svg"
   viewBox="0 0 99.333336 19.333332"
   height="19.333332"
   width="99.333336"
   id="svg3718"
   version="1.1">
  <metadata
     id="metadata3724">
    <rdf:RDF>
      <cc:Work
         rdf:about="">
        <dc:format>image/svg+xml</dc:format>
        <dc:type
           rdf:resource="http://purl.org/dc/dcmitype/StillImage" />
        <dc:title></dc:title>
      </cc:Work>
    </rdf:RDF>
  </metadata>
  <defs
     id="defs3722" />
  <sodipodi:namedview
     inkscape:current-layer="g3726"
     inkscape:window-maximized="1"
     inkscape:window-y="-11"
     inkscape:window-x="-11"
     inkscape:cy="19.543574"
     inkscape:cx="49.666668"
     inkscape:zoom="11.313708"
     showgrid="false"
     id="namedview3720"
     inkscape:window-height="1058"
     inkscape:window-width="2049"
     inkscape:pageshadow="2"
     inkscape:pageopacity="0"
     guidetolerance="10"
     gridtolerance="10"
     objecttolerance="10"
     borderopacity="1"
     bordercolor="#666666"
     pagecolor="#ffffff" />
  <g
     id="g3726"
     inkscape:label="Image"
     inkscape:groupmode="layer">
    <path
       id="path4303"
       d="M 29.579272,12.255103 C 16.559177,11.949096 5.4791235,11.535591 4.9569304,11.336202 3.5760091,10.808926 3.7569689,8.2760542 5.1799805,8.2141972 9.606998,8.0217602 67.48077,8.5172342 79.717002,8.8523302 c 21.494728,0.588644 24.393128,3.4128338 3.502509,3.4128338 -6.600322,0 -16.043107,0.122921 -20.983962,0.273157 -4.940858,0.150237 -19.636183,0.02279 -32.656277,-0.283218 z M 74.692033,10.236457 C 64.3741,9.9850202 45.530471,9.8023102 32.817303,9.8304322 16.02955,9.8675722 12.728455,9.9831072 20.75738,10.252527 c 6.080211,0.204029 24.92384,0.38674 41.874731,0.406024 28.361735,0.03227 29.323588,-0.0014 12.059922,-0.422094 z"
       style="fill:#2b1100;stroke:#331400;stroke-width:0.701746;stroke-linecap:square;stroke-linejoin:round;stroke-miterlimit:4;stroke-dasharray:none;stroke-opacity:1;paint-order:normal" />
  </g>
</svg>
