<?xml version="1.0" encoding="UTF-8" standalone="no"?>
<svg
   xmlns:dc="http://purl.org/dc/elements/1.1/"
   xmlns:cc="http://creativecommons.org/ns#"
   xmlns:rdf="http://www.w3.org/1999/02/22-rdf-syntax-ns#"
   xmlns:svg="http://www.w3.org/2000/svg"
   xmlns="http://www.w3.org/2000/svg"
   xmlns:sodipodi="http://sodipodi.sourceforge.net/DTD/sodipodi-0.dtd"
   xmlns:inkscape="http://www.inkscape.org/namespaces/inkscape"
   inkscape:version="1.0 (4035a4fb49, 2020-05-01)"
   sodipodi:docname="menu1trait_droit.svg"
   viewBox="0 0 100.66667 20.666668"
   height="20.666668"
   width="100.66667"
   id="svg6822"
   version="1.1">
  <metadata
     id="metadata6828">
    <rdf:RDF>
      <cc:Work
         rdf:about="">
        <dc:format>image/svg+xml</dc:format>
        <dc:type
           rdf:resource="http://purl.org/dc/dcmitype/StillImage" />
        <dc:title />
      </cc:Work>
    </rdf:RDF>
  </metadata>
  <defs
     id="defs6826" />
  <sodipodi:namedview
     inkscape:current-layer="g6830"
     inkscape:window-maximized="1"
     inkscape:window-y="-11"
     inkscape:window-x="-11"
     inkscape:cy="6.0340156"
     inkscape:cx="96.138337"
     inkscape:zoom="8.7188668"
     showgrid="false"
     id="namedview6824"
     inkscape:window-height="1058"
     inkscape:window-width="2049"
     inkscape:pageshadow="2"
     inkscape:pageopacity="0"
     guidetolerance="10"
     gridtolerance="10"
     objecttolerance="10"
     borderopacity="1"
     bordercolor="#666666"
     pagecolor="#ffffff"
     inkscape:document-rotation="0"
     showguides="false" />
  <g
     id="g6830"
     inkscape:label="Image"
     inkscape:groupmode="layer">
    <path
       id="path7395"
       d="m 4.1620232,10.597537 c 0,-2.35702 -0.3355833,-2.3387505 41.3107598,-2.249021 47.762578,0.1029065 58.869627,0.9142868 48.000942,3.506517 -5.682281,1.35525 -89.3117018,0.177762 -89.3117018,-1.257496 z M 82.280861,10.304871 C 80.243705,10.037262 74.940373,9.841712 70.495686,9.8703143 c -7.380251,0.047497 -7.643131,0.087517 -3.030476,0.4613717 7.736322,0.627032 19.629154,0.605506 14.815651,-0.02681 z M 25.543689,9.8545981 c -3.611311,-0.1150679 -9.520735,-0.1150679 -13.132047,0 -3.6113127,0.1150687 -0.656602,0.2092149 6.566026,0.2092149 7.222625,0 10.177333,-0.09415 6.566021,-0.2092149 z m 9.091413,0.053257 c -0.462987,-0.1775308 -1.220604,-0.1775308 -1.683594,0 -0.462987,0.1775319 -0.08418,0.3227849 0.841801,0.3227849 0.925977,0 1.304783,-0.145253 0.841793,-0.3227849 z"
       style="fill:#2b1100;stroke:#2b1100;stroke-width:0.999983;stroke-miterlimit:4;stroke-dasharray:none;stroke-opacity:1" />
  </g>
</svg>
