<?xml version="1.0" encoding="UTF-8" standalone="no"?>
<svg
   xmlns:osb="http://www.openswatchbook.org/uri/2009/osb"
   xmlns:dc="http://purl.org/dc/elements/1.1/"
   xmlns:cc="http://creativecommons.org/ns#"
   xmlns:rdf="http://www.w3.org/1999/02/22-rdf-syntax-ns#"
   xmlns:svg="http://www.w3.org/2000/svg"
   xmlns="http://www.w3.org/2000/svg"
   xmlns:xlink="http://www.w3.org/1999/xlink"
   xmlns:sodipodi="http://sodipodi.sourceforge.net/DTD/sodipodi-0.dtd"
   xmlns:inkscape="http://www.inkscape.org/namespaces/inkscape"
   version="1.1"
   id="svg38"
   width="88"
   height="87"
   viewBox="0 0 88 87"
   sodipodi:docname="musique.svg.2020_06_22_16_39_08.0.svg"
   inkscape:version="1.0 (4035a4fb49, 2020-05-01)">
  <metadata
     id="metadata44">
    <rdf:RDF>
      <cc:Work
         rdf:about="">
        <dc:format>image/svg+xml</dc:format>
        <dc:type
           rdf:resource="http://purl.org/dc/dcmitype/StillImage" />
        <dc:title />
      </cc:Work>
    </rdf:RDF>
  </metadata>
  <defs
     id="defs42">
    <pattern
       inkscape:collect="always"
       patternUnits="userSpaceOnUse"
       width="2"
       height="1"
       patternTransform="translate(0,0) scale(10,10)"
       id="Strips1_1"
       inkscape:stockid="Stripes 1:1"
       inkscape:isstock="true">
      <rect
         style="fill:black;stroke:none"
         x="0"
         y="-0.5"
         width="1"
         height="2"
         id="rect2051" />
    </pattern>
    <linearGradient
       osb:paint="solid"
       id="linearGradient3698">
      <stop
         id="stop3696"
         offset="0"
         style="stop-color:#000000;stop-opacity:1;" />
    </linearGradient>
    <linearGradient
       inkscape:collect="always"
       id="linearGradient3264">
      <stop
         style="stop-color:#d40000;stop-opacity:1;"
         offset="0"
         id="stop3260" />
      <stop
         style="stop-color:#f39272;stop-opacity:0.94901961"
         offset="1"
         id="stop3262" />
    </linearGradient>
    <clipPath
       id="clipPath849"
       clipPathUnits="userSpaceOnUse">
      <path
         id="path851"
         d="m 14.343313,35.255972 c -1.374163,-0.492534 -1.796495,-2.3509 -0.834707,-3.672918 0.604115,-0.830383 2.562193,-1.720131 3.785511,-1.720131 h 0.808652 l 0.09287,-6.686755 0.09287,-6.686755 2.058361,-0.788339 c 3.537426,-1.35481 12.134021,-3.343373 14.453465,-3.343373 0.386536,0 0.469653,1.669738 0.469653,9.434899 0,6.12688 -0.129964,9.668697 -0.370674,10.101722 -0.484643,0.871847 -2.343006,1.601761 -4.07809,1.601761 -3.649233,0 -3.694069,-4.18319 -0.05608,-5.232574 0.755585,-0.217951 1.576553,-0.355974 1.824373,-0.306719 0.352609,0.07008 0.471236,-0.971463 0.545566,-4.790081 l 0.09498,-4.879634 -2.667934,0.159576 c -2.650679,0.158545 -6.794596,0.873582 -8.928783,1.540671 -1.255757,0.392515 -1.188759,-0.0041 -1.305428,7.728735 -0.087,5.766406 -0.177034,6.341578 -1.064246,6.79872 -0.429118,0.221107 -0.72355,0.491084 -0.654292,0.599949 0.163843,0.257543 -3.594429,0.381977 -4.266063,0.141246 z M 27.635398,17.252779 c 5.212079,-1.025703 5.573328,-1.144932 5.574728,-1.839921 0.0019,-0.928568 -0.325474,-0.933167 -4.474347,-0.06287 -4.422976,0.927797 -8.217382,2.252601 -8.217382,2.869069 0,0.342528 0.233524,0.436557 0.771885,0.3108 0.424537,-0.09917 3.279839,-0.673856 6.345116,-1.277081 z"
         style="fill:none;stroke:#000000;stroke-width:0.336613" />
    </clipPath>
    <linearGradient
       gradientTransform="matrix(0.88537098,0,0,0.9336627,59.080908,4.4666567)"
       gradientUnits="userSpaceOnUse"
       y2="41.102627"
       x2="26.078732"
       y1="41.102627"
       x1="-60.246788"
       id="linearGradient3242"
       xlink:href="#linearGradient3264"
       inkscape:collect="always" />
    <linearGradient
       gradientTransform="matrix(0.88537098,0,0,0.9336627,59.080908,4.4666567)"
       gradientUnits="userSpaceOnUse"
       y2="41.102627"
       x2="26.078732"
       y1="41.102627"
       x1="-60.246788"
       id="linearGradient3286"
       xlink:href="#linearGradient3264"
       inkscape:collect="always" />
    <linearGradient
       gradientUnits="userSpaceOnUse"
       y2="64.000404"
       x2="25.92984"
       y1="64.000404"
       x1="25.92984"
       id="linearGradient3694"
       xlink:href="#linearGradient3264"
       inkscape:collect="always" />
    <linearGradient
       gradientUnits="userSpaceOnUse"
       y2="42.201569"
       x2="81.41967"
       y1="42.201569"
       x1="8.3523531"
       id="linearGradient3710"
       xlink:href="#linearGradient3264"
       inkscape:collect="always" />
  </defs>
  <sodipodi:namedview
     inkscape:document-rotation="0"
     pagecolor="#ffffff"
     bordercolor="#666666"
     borderopacity="1"
     objecttolerance="10"
     gridtolerance="10"
     guidetolerance="10"
     inkscape:pageopacity="0"
     inkscape:pageshadow="2"
     inkscape:window-width="1366"
     inkscape:window-height="705"
     id="namedview40"
     showgrid="false"
     inkscape:zoom="3.1128954"
     inkscape:cx="28.558239"
     inkscape:cy="43.5"
     inkscape:window-x="-8"
     inkscape:window-y="-8"
     inkscape:window-maximized="1"
     inkscape:current-layer="g46" />
  <g
     inkscape:groupmode="layer"
     inkscape:label="Image"
     id="g46">
    <path
       id="path3168"
       d="M 12.94786,81.473352 C 9.9916807,80.926991 5.680132,76.174742 5.7407826,73.529619 5.8663415,68.053715 13.056684,62.359979 19.860835,62.348541 l 4.335004,-0.0075 V 39.783795 17.226342 l 7.269004,-2.78437 C 47.252852,8.3944246 79.676714,1.8659544 81.706567,4.3259175 82.183601,4.9040303 82.314198,17.571799 81.996785,32.476514 L 81.419669,59.575993 80.840783,32.476514 80.261899,5.3770322 76.215895,5.7339854 c -8.17414,0.7211518 -21.636571,3.808624 -35.471208,8.1349636 l -14.190604,4.437656 -0.312122,22.846898 -0.31212,22.846903 -5.202006,0.60379 c -6.675828,0.774865 -10.228204,2.681096 -11.6460598,6.249368 -2.4400993,6.140915 4.4806258,10.595429 12.7696548,8.219182 7.36885,-2.112467 7.485557,-2.508714 8.124415,-27.584802 l 0.578001,-22.687337 4.624005,-1.39222 4.624005,-1.39222 -4.913006,0.60629 c -4.853994,0.599007 -4.913005,0.565358 -4.913005,-2.801451 0,-3.336264 0.236407,-3.480436 11.271013,-6.873587 11.890994,-3.656491 25.966598,-6.592931 31.602724,-6.592931 3.068137,0 3.366313,0.338471 3.366313,3.821234 0,3.559422 -0.297015,3.867028 -4.335005,4.489626 -5.981888,0.922319 -26.987483,4.957472 -29.565149,5.679434 -4.907055,1.374388 -0.603435,1.278517 7.932864,-0.17672 5.062899,-0.863104 12.976726,-1.586646 17.586281,-1.60787 l 8.381009,-0.03859 -0.256561,17.421095 -0.256561,17.421092 -0.352256,-16.99374 -0.352259,-16.993745 -7.77219,0.73892 c -10.705896,1.017835 -20.419242,2.630178 -28.291213,4.696132 l -6.647007,1.744468 v 21.274053 c 0,20.148413 -0.132602,21.435345 -2.506096,24.322511 -3.971605,4.831125 -9.69532,6.640321 -16.833892,5.320962 z M 37.703598,23.541168 c 4.193615,-1.536898 22.144243,-5.029701 30.709288,-5.975362 6.093644,-0.672796 6.647008,-0.961646 6.647008,-3.469675 0,-2.549383 -0.295361,-2.68771 -4.335005,-2.030212 -15.834811,2.577292 -37.329741,8.936328 -38.148202,11.285719 -0.590907,1.696202 0.868552,1.750155 5.126911,0.18953 z m 22.585496,49.245321 c -4.022482,-2.695839 -3.571086,-9.441963 0.871092,-13.018461 4.16388,-3.352437 10.110363,-4.828642 11.990961,-2.97674 1.009504,0.994098 0.912159,1.256486 -0.403256,1.086942 -6.474998,-0.834555 -13.872015,3.66203 -13.872015,8.432701 0,9.816007 18.820034,9.051851 21.815304,-0.885775 0.872036,-2.893215 1.117526,-3.113149 1.200464,-1.075514 0.1497,3.677921 -1.776373,6.570166 -5.652611,8.488124 -4.378915,2.166676 -12.680333,2.139992 -15.949939,-0.05126 z"
       style="opacity:1;mix-blend-mode:luminosity;fill:url(#linearGradient3286);fill-opacity:1;stroke:url(#linearGradient3242);stroke-width:1.37453;stroke-miterlimit:4;stroke-dasharray:none;stroke-dashoffset:0;stroke-opacity:1" />
    <path
       d="m -47.763953,65.085502 c -2.042274,0.940877 -3.953047,2.138941 -5.767205,3.456974 0.201834,-0.139047 -0.857993,0.519462 -0.640626,0.394416 7.551072,-4.343935 2.123174,-1.280935 -0.64693,0.35895 -0.19827,0.117375 -0.361357,0.286484 -0.550836,0.417578 -0.517151,0.42452 -0.830985,1.023031 -1.290878,1.495378 -0.412783,0.459471 -0.822111,0.887663 -1.077755,1.459074 -0.221751,0.60883 -0.245673,1.25965 -0.264728,1.900232 -0.517637,2.348151 -1.30167,1.655641 3.739596,-1.361762 0.01222,0.03074 0.06796,0.102934 0.03667,0.09221 -0.08339,-0.02859 -0.171785,-0.960098 -0.180002,-1.070672 -0.0735,-0.852872 0.208461,-1.673554 0.439097,-2.482233 0.326166,-0.867455 0.844755,-1.627105 1.423514,-2.342669 0.469355,-0.796266 1.294163,-1.161169 2.059594,-1.612605 -6.824215,4.004807 -3.089296,1.598492 -1.327292,1.03125 0.257571,-0.06326 0.377431,-0.106062 0.632427,-0.124012 0.05116,-0.0036 0.176591,0.05291 0.153702,0.007 -0.183251,-0.367466 -0.75654,0.629956 -0.756784,0.630273 -0.749379,0.874055 -1.410821,1.582567 -2.351474,2.246007 -0.720685,0.531789 -1.445466,1.049061 -2.030539,1.732684 -0.318096,0.23166 -0.4842,0.61275 -0.801179,0.844089 -0.05733,0.04184 -0.255085,0.12412 -0.193625,0.08861 4.053996,-2.342114 3.093375,-3.529371 4.126594,-2.134303 0.06607,-0.0039 0.138741,0.01729 0.1982,-0.01178 0.329495,-0.161069 0.592797,-0.43201 0.888832,-0.648513 0.570964,-0.417571 1.138982,-0.832649 1.729351,-1.222347 0.533019,-0.464552 1.800764,-0.847446 1.981544,-1.588876 -0.120223,-0.140399 -0.197657,-0.334063 -0.360669,-0.421197 -0.267888,-0.143192 -1.333917,0.509678 -1.57359,0.648137 -1.469358,0.848852 -2.937075,1.70054 -4.405613,2.55081 8.176441,-4.429575 0.70037,-0.914092 -1.608776,1.080773 -0.21335,0.184313 -0.469716,0.463016 -0.664705,0.667715 -0.08746,0.115431 -0.174912,0.230863 -0.262368,0.346295 0,0 4.31844,-1.83777 4.31844,-1.83777 v 0 c 0.0902,-0.100296 0.180396,-0.200592 0.270593,-0.300888 0.344112,-0.327783 0.690457,-0.623515 1.083331,-0.892915 0.138175,-0.09475 0.566734,-0.357166 0.420762,-0.274934 -0.667615,0.376095 -10.160347,5.841646 0.808013,-0.470791 -6.493008,3.735121 -4.216504,2.431324 -2.808536,1.608413 0.104269,-0.06094 0.532089,-0.27355 0.541819,-0.331206 0.02361,-0.139925 -0.07546,-0.27359 -0.113191,-0.410385 -0.21099,0.114959 -0.406176,0.303871 -0.602902,0.438324 -0.436967,0.298648 -0.897105,0.562615 -1.324309,0.875929 -0.575396,0.404413 -2.377652,1.566384 -2.638273,2.138021 -0.06203,0.136059 -0.02097,0.29833 -0.03146,0.447494 0.06792,0.104337 0.09032,0.364289 0.203766,0.313009 3.770479,-1.70432 3.437833,-1.474942 5.140703,-3.307766 0.637376,-0.615383 1.354451,-1.132227 2.065839,-1.658391 0.858371,-0.676552 1.553,-1.517907 2.252881,-2.352748 0.139006,-0.194328 0.552485,-0.691975 0.567986,-0.98754 0.03898,-0.743182 -0.655535,-0.647178 -1.132988,-0.552696 -2.469638,0.608221 -4.468667,2.54258 -6.739613,3.506612 -0.799343,0.474047 -1.523165,0.964193 -2.011022,1.782393 -0.569659,0.763914 -1.076709,1.573398 -1.338553,2.499485 -0.250089,0.869515 -0.508264,1.74578 -0.425315,2.662663 0.04714,0.571694 0.08397,1.160452 0.460258,1.623955 3.724402,-2.158731 4.116528,-1.075538 4.357012,-3.59001 0.03201,-0.586535 0.07406,-1.185052 0.36226,-1.711149 0.317823,-0.493881 0.738533,-0.90209 1.109339,-1.355389 0.400266,-0.50583 0.792285,-1.028049 1.334856,-1.393218 0.180616,-0.130523 0.747733,-0.484383 0.554311,-0.373718 -1.237882,0.708246 -4.933758,2.863683 -3.706444,2.137278 1.642312,-0.972029 3.390788,-1.838869 4.974125,-2.931568 0.104718,-0.07422 0.209436,-0.148433 0.314154,-0.22265 0.10105,-0.07427 0.201025,-0.150028 0.303152,-0.222813 0.101124,-0.07207 0.41472,-0.272662 0.306533,-0.211705 -7.017779,3.954119 -4.672171,2.504373 -3.253835,1.907029 0,0 3.72276,-2.977856 3.72276,-2.977856 z"
       id="path3614"
       style="opacity:1;fill:#aa0000;fill-opacity:0;fill-rule:evenodd;stroke:none;stroke-width:1.88976;stroke-miterlimit:4;stroke-dasharray:none;stroke-dashoffset:0;stroke-opacity:1" />
    <path
       id="path3676"
       d="m 25.929841,64.000406 -10.831357,1.854682 -4.818665,3.533688 -1.9274663,4.497421 3.5336873,3.533687 4.176177,1.606222 5.461153,-0.321244 5.13991,-2.569955 2.569954,-8.673597 1.320612,-38.660703 0.606854,-9.204703 43.367985,-9.316085 1.927466,7.388619 -25.699546,5.782398 25.45929,-0.929234 -0.513122,34.842187 -12.096395,2.708901 -4.176176,4.497421 0.858892,8.216378 8.457193,-0.18527 5.13991,-0.963733 5.461153,-3.533687 2.072319,-8.527806 L 80.261899,5.3770322 26.554083,18.306605 Z"
       style="fill:url(#linearGradient3710);stroke:none;stroke-width:1px;stroke-linecap:butt;stroke-linejoin:miter;stroke-opacity:1;fill-rule:nonzero;fill-opacity:1.0" />
    <path
       id="path3678"
       d="M 25.929841,64.000406 Z"
       style="mix-blend-mode:multiply;fill:url(#linearGradient3694);fill-opacity:1;stroke:url(#Strips1_1);stroke-width:71.811;stroke-linecap:butt;stroke-linejoin:miter;stroke-miterlimit:4;stroke-dasharray:none;stroke-opacity:1" />
    <ellipse
       ry="0.80311102"
       rx="10.279819"
       cy="70.834373"
       cx="18.632172"
       id="path3722"
       style="opacity:1;fill:#d40000;fill-opacity:1;fill-rule:nonzero;stroke:none;stroke-width:71.811;stroke-miterlimit:4;stroke-dasharray:none;stroke-dashoffset:0;stroke-opacity:1" />
    <ellipse
       ry="8.5765314"
       rx="10.871581"
       cy="73.019531"
       cx="19.325388"
       id="path3724"
       style="opacity:1;fill:#d40000;fill-opacity:1;fill-rule:nonzero;stroke:none;stroke-width:77.7868;stroke-miterlimit:4;stroke-dasharray:none;stroke-dashoffset:0;stroke-opacity:1" />
    <ellipse
       ry="0.96373302"
       rx="1.927466"
       cy="28.269501"
       cx="31.160702"
       id="path3728"
       style="opacity:1;fill:#d40000;fill-opacity:1;fill-rule:nonzero;stroke:none;stroke-width:71.811;stroke-miterlimit:4;stroke-dasharray:none;stroke-dashoffset:0;stroke-opacity:1" />
    <ellipse
       ry="8.1917305"
       rx="10.44044"
       cy="66.336945"
       cx="69.870644"
       id="path3730"
       style="opacity:1;fill:#e96550;fill-opacity:1;fill-rule:nonzero;stroke:none;stroke-width:53.0599;stroke-miterlimit:4;stroke-dasharray:none;stroke-dashoffset:0;stroke-opacity:1" />
  </g>
</svg>
